<svg xmlns="http://www.w3.org/2000/svg" width="192" height="24" viewBox="0 0 192 24">
  <path d="M37.2571 0.386719L30.349 12.3141L29.3009 14.5836L29.5391 12.5555L29.4914 0.386719H24.2031V23.8551H24.2508H29.0626L36.0184 11.6863L36.9713 9.5616L36.7807 11.4449L36.8284 23.8551H42.1167L42.069 0.386719H37.2571Z" fill="currentColor"></path>
  <path d="M10.5766 0.386719H8.00392L0 23.8551H5.33594L10.4337 7.09887L15.5314 23.8551H21.1056L13.1017 0.386719H10.5766Z" fill="currentColor"></path>
  <path d="M62.8882 0.386719H47.8809V5.74678V23.8551H53.1692V5.74678H62.8882V0.386719Z" fill="currentColor"></path>
  <path d="M77.7041 23.8551H83.2782L75.2743 0.386719H72.7016H70.1289L62.125 23.8068H67.461L68.7949 19.3642H76.3224L77.7041 23.8551ZM70.2242 15.0182L72.654 7.09887L75.0361 15.0182H70.2242Z" fill="currentColor"></path>
  <path d="M90.8066 0.386719V17.819L99.7634 23.7585L108.768 17.819V0.386719H90.8066Z" fill="#2C39F2"></path>
  <path d="M104.956 13.7137C105.147 13.7137 105.338 13.7137 105.528 13.6171V15.5487C105.052 15.6935 104.432 15.8384 103.861 15.8384C102.813 15.8384 102.003 15.4521 101.574 14.6795C100.526 15.4521 99.3346 15.935 97.7624 15.8867C95.8091 15.8867 94.094 14.7278 94.1416 12.6996C94.1892 10.092 96.6666 9.31941 98.7629 9.31941C99.5728 9.31941 100.526 9.46427 101.24 9.60914V9.22283C101.24 8.20876 100.43 7.48443 98.7629 7.48443C97.3336 7.48443 96.0473 7.82245 95.0468 8.20876V5.64945C95.9044 5.35972 97.5242 4.97341 99.0964 5.0217C102.241 5.06999 104.242 6.3255 104.194 9.70572L104.146 12.9894C104.242 13.5688 104.575 13.7137 104.956 13.7137ZM96.8096 12.5548C96.8096 13.3757 97.5718 13.9551 98.62 13.9551C99.5728 13.9551 100.43 13.7137 101.24 13.0859V11.3475C100.716 11.2027 99.954 11.0578 99.287 11.0578C98.0006 11.0578 96.8096 11.4441 96.8096 12.5548Z" fill="white"></path>
  <path d="M121.442 8.78858H120.918C120.298 8.78858 119.774 8.692 119.298 8.49884C118.821 8.30569 118.393 8.01595 118.059 7.72622C117.726 7.43649 117.487 7.00189 117.297 6.519C117.106 6.03611 117.059 5.55322 117.059 5.02204C117.059 4.49086 117.154 3.95969 117.344 3.52509C117.535 3.09049 117.773 2.65589 118.107 2.31787C118.44 1.97984 118.869 1.7384 119.345 1.54524C119.822 1.35209 120.394 1.25551 120.965 1.25551H121.489V0H122.299V1.20722H122.823C123.443 1.20722 123.967 1.3038 124.443 1.49696C124.92 1.69011 125.348 1.97984 125.682 2.26958C126.015 2.55931 126.254 2.99391 126.444 3.4768C126.635 3.95969 126.73 4.44258 126.73 4.97375C126.73 5.50493 126.635 6.03611 126.444 6.47071C126.254 6.90531 126.015 7.33991 125.682 7.67793C125.348 8.01595 124.967 8.2574 124.443 8.45055C123.967 8.64371 123.395 8.74029 122.823 8.74029H122.299V9.94751H121.489V8.78858H121.442ZM121.442 8.11253V1.83498H120.918C120.441 1.83498 120.012 1.93156 119.631 2.07642C119.25 2.22129 118.964 2.41444 118.678 2.65589C118.393 2.89733 118.202 3.18707 118.059 3.52509C117.916 3.86311 117.869 4.20113 117.869 4.53915V5.36006C117.869 5.69809 117.916 6.03611 118.059 6.37413C118.202 6.71215 118.393 7.00189 118.678 7.24333C118.964 7.48478 119.25 7.67793 119.631 7.8228C120.012 7.96766 120.441 8.06424 120.918 8.06424H121.442V8.11253ZM122.776 8.11253C123.252 8.11253 123.633 8.01595 124.014 7.87109C124.396 7.72622 124.729 7.53306 124.967 7.29162C125.205 7.05018 125.444 6.76044 125.587 6.42242C125.73 6.0844 125.777 5.74638 125.777 5.40835V4.58744C125.777 4.24942 125.73 3.9114 125.587 3.57338C125.444 3.23535 125.253 2.94562 124.967 2.70418C124.681 2.46273 124.396 2.26958 124.014 2.12471C123.633 1.97984 123.204 1.88327 122.776 1.88327H122.252V8.16082H122.776V8.11253Z" fill="currentColor"></path>
  <path d="M129.35 9.60935V0.337891H133.018C133.828 0.337891 134.447 0.579335 134.876 1.01393C135.305 1.49682 135.495 2.12458 135.495 2.8972C135.495 3.71811 135.305 4.34587 134.876 4.78047C134.447 5.26336 133.828 5.45651 133.018 5.45651H130.16V9.51278H129.35V9.60935ZM130.16 4.82876H133.018C133.542 4.82876 133.971 4.68389 134.257 4.39416C134.543 4.10442 134.686 3.71811 134.686 3.28351V2.60747C134.686 2.17287 134.543 1.78656 134.257 1.49682C133.971 1.20709 133.59 1.06222 133.018 1.06222H130.16V4.82876Z" fill="currentColor"></path>
  <path d="M141.356 9.75456C140.165 9.75456 139.26 9.36825 138.545 8.54733C137.878 7.72642 137.545 6.56749 137.545 4.97396C137.545 3.38043 137.878 2.22149 138.545 1.40058C139.212 0.57967 140.165 0.193359 141.356 0.193359C142.547 0.193359 143.453 0.57967 144.12 1.40058C144.787 2.22149 145.12 3.38043 145.12 4.97396C145.12 6.5192 144.787 7.72642 144.12 8.54733C143.453 9.36825 142.547 9.75456 141.356 9.75456ZM141.356 9.07851C141.785 9.07851 142.214 8.98193 142.547 8.83707C142.929 8.6922 143.214 8.45076 143.453 8.16102C143.691 7.87129 143.929 7.48498 144.072 7.05038C144.215 6.61578 144.262 6.13289 144.262 5.55342V4.39449C144.262 3.86331 144.215 3.33214 144.072 2.89754C143.929 2.46294 143.738 2.07663 143.453 1.78689C143.214 1.49716 142.881 1.25571 142.547 1.11085C142.214 0.965981 141.785 0.869404 141.356 0.869404C140.928 0.869404 140.499 0.965981 140.165 1.11085C139.784 1.25571 139.498 1.49716 139.212 1.78689C138.927 2.07663 138.736 2.46294 138.593 2.89754C138.45 3.33214 138.402 3.81503 138.402 4.39449V5.55342C138.402 6.0846 138.45 6.61578 138.593 7.05038C138.736 7.48498 138.927 7.87129 139.212 8.16102C139.451 8.45076 139.784 8.6922 140.165 8.83707C140.499 8.98193 140.928 9.07851 141.356 9.07851Z" fill="currentColor"></path>
  <path d="M153.837 5.26336H148.74V9.60935H147.93V0.337891H148.74V4.53902H153.837V0.337891H154.647V9.60935H153.837V5.26336Z" fill="currentColor"></path>
  <path d="M160.84 1.06222V9.60935H160.03V1.06222H156.934V0.337891H163.937V1.06222H160.84Z" fill="currentColor"></path>
  <path d="M166.178 9.60935V0.337891H171.609V1.06222H166.988V4.53902H171.371V5.26336H166.988V8.88502H171.609V9.60935H166.178Z" fill="currentColor"></path>
  <path d="M180.376 5.26336H175.279V9.60935H174.469V0.337891H175.279V4.53902H180.376V0.337891H181.186V9.60935H180.376V5.26336Z" fill="currentColor"></path>
  <path d="M183.281 8.88502H184.234C184.663 8.30555 184.949 7.53293 185.187 6.56716C185.425 5.60138 185.52 4.39416 185.52 2.94549V0.337891H190.761V8.88502H192V11.5892H191.238V9.60935H184.044V11.5892H183.281V8.88502ZM189.951 8.88502V1.06222H186.283V3.04207C186.283 4.49073 186.187 5.69796 185.997 6.66373C185.806 7.62951 185.52 8.35384 185.187 8.88502V8.93331H189.951V8.88502Z" fill="currentColor"></path>
  <path d="M124.156 23.8545L123.155 20.9571H119.201L118.201 23.8545H117.391L120.678 14.583H121.678L124.966 23.8545H124.156ZM121.154 15.3556H121.107L119.392 20.2811H122.917L121.154 15.3556Z" fill="currentColor"></path>
  <path d="M127.492 23.1301H128.778L129.302 21.8263L125.824 14.583H126.682L129.016 19.4602L129.636 20.8123H129.683L130.207 19.4119L132.161 14.583H132.971L129.588 23.0336C129.445 23.3716 129.302 23.5647 129.112 23.7096C128.921 23.8062 128.683 23.8545 128.349 23.8545H127.492V23.1301Z" fill="currentColor"></path>
  <path d="M138.258 15.3073V23.8545H137.448V15.3073H134.352V14.583H141.355V15.3073H138.258Z" fill="currentColor"></path>
  <path d="M146.549 24.0001C145.405 24.0001 144.5 23.6138 143.881 22.7929C143.261 21.972 142.928 20.813 142.928 19.2195C142.928 17.6743 143.261 16.467 143.881 15.6461C144.5 14.8252 145.405 14.3906 146.549 14.3906C147.311 14.3906 147.93 14.5838 148.454 14.9218C148.978 15.2598 149.359 15.7427 149.645 16.3705L148.978 16.7568C148.788 16.2739 148.454 15.8393 148.073 15.5496C147.644 15.2598 147.168 15.115 146.596 15.115C145.739 15.115 145.072 15.4047 144.548 16.0324C144.071 16.6602 143.833 17.5294 143.833 18.6883V19.799C143.833 20.9579 144.071 21.8271 144.548 22.4066C145.024 22.986 145.691 23.3241 146.596 23.3241C147.216 23.3241 147.74 23.1792 148.168 22.8412C148.597 22.5514 148.883 22.1168 149.121 21.5857L149.788 21.972C149.502 22.5997 149.121 23.1309 148.597 23.4689C147.93 23.807 147.311 24.0001 146.549 24.0001Z" fill="currentColor"></path>
  <path d="M155.409 23.9987C154.218 23.9987 153.313 23.6124 152.598 22.7915C151.931 21.9706 151.598 20.8116 151.598 19.2181C151.598 17.6246 151.931 16.4656 152.598 15.6447C153.265 14.8238 154.218 14.4375 155.409 14.4375C156.6 14.4375 157.505 14.8238 158.172 15.6447C158.839 16.4656 159.173 17.6246 159.173 19.2181C159.173 20.7633 158.839 21.9706 158.172 22.7915C157.505 23.6124 156.6 23.9987 155.409 23.9987ZM155.409 23.3227C155.838 23.3227 156.267 23.2261 156.6 23.0812C156.981 22.9363 157.267 22.6949 157.505 22.4052C157.744 22.1154 157.982 21.7291 158.125 21.2945C158.268 20.8599 158.315 20.377 158.315 19.7976V18.6386C158.315 18.1075 158.268 17.5763 158.125 17.1417C157.982 16.7071 157.791 16.3208 157.505 16.031C157.267 15.7413 156.934 15.4999 156.6 15.355C156.267 15.2101 155.838 15.1135 155.409 15.1135C154.98 15.1135 154.551 15.2101 154.218 15.355C153.837 15.4999 153.551 15.7413 153.265 16.031C152.979 16.3208 152.789 16.7071 152.646 17.1417C152.503 17.5763 152.455 18.0592 152.455 18.6386V19.7976C152.455 20.3287 152.503 20.8599 152.646 21.2945C152.789 21.7291 152.979 22.1154 153.265 22.4052C153.503 22.6949 153.837 22.9363 154.218 23.0812C154.551 23.2261 154.98 23.3227 155.409 23.3227Z" fill="currentColor"></path>
  <path d="M162.031 23.8545V14.583H165.7C166.51 14.583 167.129 14.8245 167.558 15.2591C167.987 15.7419 168.177 16.3697 168.177 17.1423C168.177 17.9632 167.987 18.591 167.558 19.0256C167.129 19.5085 166.51 19.7016 165.7 19.7016H162.841V23.7579H162.031V23.8545ZM162.841 19.0739H165.7C166.224 19.0739 166.653 18.929 166.938 18.6393C167.224 18.3495 167.367 17.9632 167.367 17.5286V16.9009C167.367 16.4663 167.224 16.08 166.938 15.7902C166.653 15.5005 166.271 15.3556 165.7 15.3556H162.841V19.0739Z" fill="currentColor"></path>
  <path d="M173.847 24.0001C172.704 24.0001 171.799 23.6138 171.179 22.7929C170.56 21.972 170.227 20.813 170.227 19.2195C170.227 17.6743 170.56 16.467 171.179 15.6461C171.799 14.8252 172.704 14.3906 173.847 14.3906C174.61 14.3906 175.229 14.5838 175.753 14.9218C176.277 15.2598 176.658 15.7427 176.944 16.3705L176.277 16.7568C176.087 16.2739 175.753 15.8393 175.372 15.5496C174.943 15.2598 174.467 15.115 173.895 15.115C173.037 15.115 172.37 15.4047 171.846 16.0324C171.37 16.6602 171.132 17.5294 171.132 18.6883V19.799C171.132 20.9579 171.37 21.8271 171.846 22.4066C172.323 22.986 172.99 23.3241 173.895 23.3241C174.514 23.3241 175.038 23.1792 175.467 22.8412C175.896 22.5514 176.182 22.1168 176.42 21.5857L177.087 21.972C176.801 22.5997 176.42 23.1309 175.896 23.4689C175.229 23.807 174.562 24.0001 173.847 24.0001Z" fill="currentColor"></path>
</svg>
